<?xml version="1.0" encoding="UTF-8"?>
<svg width="256" height="256" viewBox="0 0 256 256" fill="none" xmlns="http://www.w3.org/2000/svg">
  <defs>
    <linearGradient id="g1" x1="0" y1="0" x2="1" y2="1">
      <stop offset="0%" stop-color="#06b6d4"/>
      <stop offset="100%" stop-color="#6366f1"/>
    </linearGradient>
    <linearGradient id="g2" x1="1" y1="0" x2="0" y2="1">
      <stop offset="0%" stop-color="#5eead4"/>
      <stop offset="100%" stop-color="#2563eb"/>
    </linearGradient>
  </defs>
  <g filter="url(#f1)">
    <path d="M64 36c-22 22-30 46-30 74 0 54 44 98 98 98 28 0 52-8 74-30-20 6-40-2-55-17-15-15-23-35-17-55-20 6-40-2-55-17S58 56 64 36z" fill="url(#g1)" opacity="0.9"/>
    <path d="M192 220c22-22 30-46 30-74 0-54-44-98-98-98-28 0-52 8-74 30 20-6 40 2 55 17 15 15 23 35 17 55 20-6 40 2 55 17s23 35 15 53z" fill="url(#g2)" opacity="0.9"/>
    <rect x="90" y="84" width="76" height="20" rx="10" fill="#ffffff"/>
    <rect x="118" y="64" width="20" height="76" rx="10" fill="#ffffff"/>
  </g>
  <filter id="f1" x="0" y="0" width="256" height="256" filterUnits="userSpaceOnUse" color-interpolation-filters="sRGB">
    <feDropShadow dx="0" dy="4" stdDeviation="8" flood-color="#0ea5e9" flood-opacity="0.15"/>
  </filter>
</svg>
